<svg  viewBox="0 0 1080 1080"><defs><clipPath data-id="clip-path"><circle cx="640.15" cy="489.35" r="292.23" fill="#eaf2fc"/></clipPath></defs><rect x="75.78" y="557.92" width="330.01" height="148.8" rx="22.03" fill="#d4dfff"/><path d="M99.54,573.75h56.75a2.45,2.45,0,0,1,2.45,2.45v9.47a2.45,2.45,0,0,1-2.45,2.45H99.54a2.46,2.46,0,0,1-2.46-2.46v-9.47A2.46,2.46,0,0,1,99.54,573.75Z" fill="#fff"/><rect x="167.58" y="573.75" width="212.7" height="14.38" rx="4.56" fill="#b7c9f7"/><rect x="97.08" y="597.71" width="143.7" height="14.38" rx="3.75" fill="#fff"/><rect x="249.37" y="597.71" width="130.91" height="14.38" rx="3.58" fill="#fff"/><rect x="97.08" y="621.67" width="101.33" height="14.38" rx="3.15" fill="#b7c9f7"/><rect x="205.93" y="621.67" width="101.33" height="14.38" rx="3.15" fill="#6880e4" opacity="0.2"/><rect x="317.45" y="621.67" width="62.82" height="14.38" rx="2.48" fill="#fff"/><rect x="97.08" y="645.63" width="283.19" height="14.38" rx="5.26" fill="#6880e4" opacity="0.2"/><rect x="97.08" y="669.59" width="143.7" height="14.38" rx="3.75" fill="#fff"/><rect x="254.63" y="669.59" width="125.65" height="14.38" rx="3.5" fill="#b7c9f7"/><rect x="75.78" y="120.83" width="251.23" height="414.81" rx="21.72" fill="#d4dfff"/><rect x="96.31" y="141.77" width="210.17" height="15.16" rx="4.1" fill="#b7c9f7"/><rect x="96.31" y="166.06" width="210.17" height="15.16" rx="4.1" fill="#f6f9ff"/><rect x="96.31" y="190.34" width="144.68" height="15.16" rx="3.4" fill="#6880e4" opacity="0.2"/><rect x="96.31" y="214.62" width="210.17" height="15.16" rx="4.1" fill="#f6f9ff"/><rect x="194.2" y="238.91" width="112.28" height="15.16" rx="2.99" fill="#f6f9ff"/><rect x="96.31" y="238.91" width="86.64" height="15.16" rx="2.63" fill="#6880e4" opacity="0.2"/><rect x="96.31" y="263.19" width="210.17" height="15.16" rx="4.1" fill="#f6f9ff"/><rect x="96.31" y="287.47" width="210.17" height="15.16" rx="4.1" fill="#f6f9ff"/><rect x="96.31" y="311.76" width="210.17" height="15.16" rx="4.1" fill="#6880e4" opacity="0.2"/><rect x="96.31" y="336.04" width="210.17" height="15.16" rx="4.1" fill="#f6f9ff"/><rect x="96.31" y="360.32" width="66.69" height="15.16" rx="2.31" fill="#f6f9ff"/><rect x="178.28" y="360.32" width="80.8" height="15.16" rx="2.54" fill="#6880e4" opacity="0.2"/><rect x="96.31" y="384.6" width="210.17" height="15.16" rx="4.1" fill="#f6f9ff"/><rect x="96.31" y="408.89" width="182.38" height="15.16" rx="3.82" fill="#b7c9f7"/><rect x="96.31" y="433.17" width="210.17" height="15.16" rx="4.1" fill="#f6f9ff"/><rect x="96.31" y="457.45" width="81.97" height="15.16" rx="2.56" fill="#6880e4" opacity="0.2"/><rect x="186.57" y="457.45" width="119.91" height="15.16" rx="3.09" fill="#b7c9f7"/><rect x="96.31" y="481.74" width="210.17" height="15.16" rx="4.1" fill="#f6f9ff"/><rect x="96.31" y="506.02" width="210.17" height="15.16" rx="4.1" fill="#f6f9ff"/><rect x="353.31" y="722.04" width="74.1" height="39.04" transform="translate(632.55 -60.71) rotate(44.56)" fill="#1c056d"/><circle cx="640.15" cy="489.35" r="292.23" fill="#eaf2fc"/><g clip-path="url(#clip-path)"><path d="M415.2,617.24c-56.44-7.7-107.64.24-107.72,0-.17-.55-1.49-204.83-1.49-204.83l430.92,18.7-390.06-60.4L427.63,200.6,973.84,305.84,936.55,600h-223l221.79,26.43L862.64,766.39l-415.49,3.7L340.72,645.77l245.91-17.32S492.42,627.78,415.2,617.24Z" fill="#6880e4" opacity="0.2"/></g><path d="M399.59,733.63a341.91,341.91,0,1,1,114,74.44A340.59,340.59,0,0,1,399.59,733.63Zm443.17-450A288.76,288.76,0,1,0,928.9,487.14,286.85,286.85,0,0,0,842.76,283.61Z" fill="#1b3d9e"/><rect x="104.89" y="807.77" width="326.27" height="118.93" rx="23.71" transform="translate(-537.95 449.7) rotate(-45.44)" fill="#1b3d9e"/><path d="M640.09,807.64a318.65,318.65,0,1,1,226.85-95l-1.41-1.38,1.41,1.38a317.23,317.23,0,0,1-224.34,95ZM640.22,175h-2.48a315,315,0,1,0,2.48,0Z" fill="#1c056d"/><rect x="170.31" y="888.7" width="27.75" height="127.36" rx="9.52" transform="translate(-623.63 415.36) rotate(-45.44)" fill="#1c056d"/><rect x="336.37" y="182.29" width="205.23" height="372.39" rx="59.78" transform="translate(807.47 -70.5) rotate(90)" fill="#fff"/><rect x="268.51" y="281.59" width="340.94" height="173.79" rx="39.52" fill="#68a9fd"/><path d="M355.68,335.66a4.95,4.95,0,0,1,4.76-4.12,5.32,5.32,0,0,1,3.05.9,4.89,4.89,0,0,1,2,2.86q1.94,17.07,2.69,33.78T369,403a4.58,4.58,0,0,1-.86,2.62,4.8,4.8,0,0,1-2,1.54,6.63,6.63,0,0,1-2.58.5,6.4,6.4,0,0,1-2.62-.54,5.86,5.86,0,0,1-2.08-1.54,4.88,4.88,0,0,1-1.07-2.58q-.07-8.1.28-15.88t0-15.88c-.24.09-.5.19-.78.28s-.6.19-.94.29c-2.67-.05-5.26-.17-7.74-.36s-4.95-.33-7.39-.43-4.88-.07-7.34.07a47.58,47.58,0,0,0-7.57,1.08l-.72,28.68a4.64,4.64,0,0,1-1.54,3.51A4.72,4.72,0,0,1,321,405.5a5.15,5.15,0,0,1-3.19-1.15,4.82,4.82,0,0,1-1.79-3.44V335.66a4.48,4.48,0,0,1,1.79-2.94,4.92,4.92,0,0,1,3-.89,5.47,5.47,0,0,1,3.09,1.07,5.4,5.4,0,0,1,2,3l.43,26.46a54.88,54.88,0,0,1,7.64-.87q3.69-.14,7.35,0c2.43.12,4.9.28,7.38.47s5.07.31,7.74.36a1.9,1.9,0,0,0,.51.17,2.37,2.37,0,0,1,.5.18q-.44-7.1-.75-13.51T355.68,335.66Z" fill="#fff"/><path d="M380.84,342a5.59,5.59,0,0,1-3.15-1.36,4,4,0,0,1-1.33-2.4,4,4,0,0,1,.65-2.66,5.27,5.27,0,0,1,2.76-2q7.46-.93,13.48-1.22T405,332q5.73,0,11.79.29t13.52.32a5.25,5.25,0,0,1,2.86,1.83,4.13,4.13,0,0,1,.9,2.62,3.82,3.82,0,0,1-1.07,2.51,5.55,5.55,0,0,1-3.05,1.57c-2,0-3.8,0-5.38,0l-4.62.07c-1.51,0-3,.06-4.63.11s-3.37.07-5.38.07q.07,7.53.11,14.95t.18,14.77q.15,7.35.43,14.77t.93,15a5.11,5.11,0,0,1-1.32,3.37,6.48,6.48,0,0,1-2.87,1.86,5,5,0,0,1-3.26-.07,4.29,4.29,0,0,1-2.51-2.44q-.72-7.74-.83-15.52t0-15.56q.13-7.77.39-15.56t.25-15.52c-2.15,0-4,0-5.66,0s-3.19-.08-4.7-.11-3.06,0-4.66.07S383,341.69,380.84,342Z" fill="#fff"/><path d="M483.23,400.12a6.63,6.63,0,0,1-3,3.12,3.66,3.66,0,0,1-2.76,0,5.32,5.32,0,0,1-2.12-1.65,8.23,8.23,0,0,1-1.14-1.83,62.43,62.43,0,0,1-2.48-7.06c-.78-2.7-1.55-5.56-2.29-8.57s-1.51-6.1-2.3-9.28-1.6-6.25-2.43-9.22-1.72-5.74-2.66-8.35a42.42,42.42,0,0,0-3-6.78,108.39,108.39,0,0,0-2.69,12.55q-1,6.31-1.58,12.66t-1.07,12.65c-.32,4.21-.73,8.39-1.26,12.55a6.42,6.42,0,0,1-1.61,3.8,4.21,4.21,0,0,1-2.87,1.26,5.49,5.49,0,0,1-3.23-1.08,7.86,7.86,0,0,1-2.61-3.26q.29-8.82,1.29-17.93t2.33-17.64q1.32-8.52,2.76-16.09T451,336.81a4.94,4.94,0,0,1,2.18-2.47,7.69,7.69,0,0,1,3.34-1,8.83,8.83,0,0,1,3.47.39,4.31,4.31,0,0,1,2.48,1.83,60.84,60.84,0,0,1,6.85,11.83,109.31,109.31,0,0,1,4.62,12.55q1.86,6.24,3.12,11.94t2.47,10q1.58-6.81,3.77-13.48t4.34-12.59q2.14-5.91,4-10.75a75.56,75.56,0,0,0,2.61-8,5.82,5.82,0,0,1,1.79-2.86,6.16,6.16,0,0,1,3-1.54,4.68,4.68,0,0,1,3.08.39,4.35,4.35,0,0,1,2.12,2.87q1.29,8.75,3,17.1t3.34,16.45q1.65,8.11,3.08,16.14t2.08,16.06a4.32,4.32,0,0,1-1,3.62,4.25,4.25,0,0,1-2.9,1.32,5.24,5.24,0,0,1-3.27-1,5.39,5.39,0,0,1-2.11-3.54q-1.44-6.32-2.69-12.3t-2.33-11.9q-1.08-5.93-2-11.94t-1.61-12.41q-1.59,5.67-3,11.37t-3,11.47Q490,382.06,488,388T483.23,400.12Z" fill="#fff"/><path d="M529.34,336.88a4.31,4.31,0,0,1,1.93-2.94,5.7,5.7,0,0,1,3.3-.86,6.57,6.57,0,0,1,3.41,1.15,5.32,5.32,0,0,1,2.18,3q0,8-.14,15.49t-.32,14.8q-.18,7.35-.33,14.85t-.21,15.52a79.74,79.74,0,0,0,8.57.72c3,.09,6.11.13,9.25.1s6.21-.08,9.25-.18,5.91-.14,8.64-.14a5.25,5.25,0,0,1,2.86,1.83,4.19,4.19,0,0,1,.9,2.62,3.8,3.8,0,0,1-1.08,2.51,5.52,5.52,0,0,1-3,1.57c-3,0-6.27.1-9.75.29s-7,.33-10.62.43-7.11.11-10.57,0a80.43,80.43,0,0,1-9.65-.76,3.87,3.87,0,0,1-3.19-.75,5.2,5.2,0,0,1-1.9-3.69q0-8.46.08-16.6t.17-16.21q.12-8.06.18-16.2T529.34,336.88Z" fill="#fff"/><rect x="702.47" y="394.54" width="147.04" height="256.94" rx="38.45" transform="translate(1299.01 -252.98) rotate(90)" fill="#fff"/><rect x="659.98" y="461.95" width="232.03" height="122.13" rx="22.39" fill="#68a9fd"/><path d="M702.57,503.25a4.44,4.44,0,0,1-2.5-1.08,3.1,3.1,0,0,1-1.05-1.9,3.06,3.06,0,0,1,.51-2.1,4.13,4.13,0,0,1,2.18-1.62c1.56-.11,3.27-.26,5.14-.45s3.75-.31,5.63-.37a38.55,38.55,0,0,1,5.42.2,14.23,14.23,0,0,1,4.55,1.19,4.49,4.49,0,0,1,1.9,2.53,4.18,4.18,0,0,1-.09,2.61,2.92,2.92,0,0,1-1.64,1.68,3.52,3.52,0,0,1-2.9-.29A9.31,9.31,0,0,0,716,503c.19,2.12.44,4.45.77,7s.63,5.18.94,7.93.53,5.52.7,8.32a80.18,80.18,0,0,1,.09,8.18,44.28,44.28,0,0,1-.94,7.52,22.4,22.4,0,0,1-2.35,6.34,9,9,0,0,1-3.3,3.26,14.6,14.6,0,0,1-4.63,1.71,20.43,20.43,0,0,1-5.28.28,24.42,24.42,0,0,1-5.31-1,20.66,20.66,0,0,1-4.69-2,11.49,11.49,0,0,1-3.38-3,10,10,0,0,1-1.47-2.9,21,21,0,0,1-.77-3.29A28.12,28.12,0,0,1,686,538q-.06-1.68-.12-3.21a3.67,3.67,0,0,1,1.45-2.36,4.19,4.19,0,0,1,2.42-.77,4.41,4.41,0,0,1,2.49.8,4.06,4.06,0,0,1,1.65,2.33c0,1.51,0,2.81,0,3.89a8.73,8.73,0,0,0,.26,2.81,4.38,4.38,0,0,0,1.36,2.1,10.69,10.69,0,0,0,3.35,1.76q4.83,1.65,7.44,0t3.64-6.7a42,42,0,0,0,.79-8.35q0-4.42-.39-9t-1-9.09c-.39-3-.71-6-.93-8.75a10.34,10.34,0,0,1-3.24-.05A9.7,9.7,0,0,0,702.57,503.25Z" fill="#fff"/><path d="M728,550.85a40.42,40.42,0,0,0,1.93-6c.61-2.4,1.21-5.05,1.82-7.92s1.25-5.89,1.93-9,1.41-6.24,2.19-9.29,1.64-6,2.58-8.69a44.25,44.25,0,0,1,3.18-7.24,18.2,18.2,0,0,1,3.92-5,7.26,7.26,0,0,1,4.83-1.85,4.12,4.12,0,0,1,3,1.85,23.62,23.62,0,0,1,3,4.94c1,2.06,1.93,4.46,2.9,7.18s1.92,5.59,2.87,8.58,1.89,6,2.84,9.14,1.88,6.06,2.81,8.86,1.85,5.38,2.78,7.73a34.56,34.56,0,0,0,2.81,5.74,3.57,3.57,0,0,1-.11,2.69,3.67,3.67,0,0,1-4,2.11,4.45,4.45,0,0,1-2.5-1.34,39.43,39.43,0,0,1-2.5-4.49q-1.14-2.39-2-4.6c-.55-1.47-1-2.81-1.33-4s-.57-2.11-.69-2.76l-5.45,0-5.17,0-5.14,0-5.48-.09c-.45,1.75-.8,3.27-1,4.58s-.48,2.56-.71,3.77-.51,2.47-.85,3.75a41,41,0,0,1-1.48,4.43,4.13,4.13,0,0,1-2.36,1.54,3.79,3.79,0,0,1-4.23-1.82A3.71,3.71,0,0,1,728,550.85Zm21.7-46.18c-.53-.15-1.06.19-1.59,1a17.08,17.08,0,0,0-1.56,3.41c-.51,1.43-1,3.08-1.51,4.94s-1,3.73-1.45,5.62-.92,3.7-1.33,5.42-.82,3.19-1.19,4.41l4.51.11c1.38,0,2.75.08,4.09.14l4.09.17c1.38.06,2.87.11,4.46.14a68.9,68.9,0,0,1-2.3-6.5c-.63-2.1-1.23-4.19-1.82-6.28s-1.22-4.16-1.9-6.24A61.55,61.55,0,0,0,749.71,504.67Z" fill="#fff"/><path d="M799.24,553.69a4.27,4.27,0,0,1-1.76,1.28,3.16,3.16,0,0,1-3.24-.62,6.07,6.07,0,0,1-1.19-1.45q-4.72-13.41-9.55-26.13t-9.94-25.84a3.29,3.29,0,0,1,.74-2.62,4.45,4.45,0,0,1,2.28-1.36,5.1,5.1,0,0,1,2.81.11,4.75,4.75,0,0,1,2.41,1.76q2.1,5.81,4.09,10.82t3.83,10q1.85,5,3.58,10.17t3.38,11.33q2.22-5.46,4.26-10.79t3.95-10.68q1.9-5.34,3.72-10.71t3.63-10.87a3.42,3.42,0,0,1,2.11-1.71,3.72,3.72,0,0,1,2.49.17,4.65,4.65,0,0,1,2,1.71,4.45,4.45,0,0,1,.77,2.78q-1.87,6.65-4.26,13.2t-5.09,13.13q-2.68,6.55-5.5,13.12T799.24,553.69Z" fill="#fff"/><path d="M825,550.85a39.27,39.27,0,0,0,1.93-6c.61-2.4,1.22-5.05,1.82-7.92s1.25-5.89,1.93-9,1.41-6.24,2.19-9.29,1.64-6,2.59-8.69a42.6,42.6,0,0,1,3.18-7.24,18.18,18.18,0,0,1,3.91-5,7.26,7.26,0,0,1,4.83-1.85,4.1,4.1,0,0,1,3,1.85,23.62,23.62,0,0,1,2.95,4.94c1,2.06,1.94,4.46,2.9,7.18s1.92,5.59,2.87,8.58,1.89,6,2.84,9.14,1.88,6.06,2.81,8.86,1.86,5.38,2.78,7.73a33.75,33.75,0,0,0,2.82,5.74,3.62,3.62,0,0,1-.12,2.69,3.67,3.67,0,0,1-4,2.11,4.45,4.45,0,0,1-2.5-1.34,39.43,39.43,0,0,1-2.5-4.49q-1.14-2.39-2-4.6c-.55-1.47-1-2.81-1.33-4a28,28,0,0,1-.68-2.76l-5.46,0-5.17,0-5.14,0-5.48-.09c-.45,1.75-.8,3.27-1,4.58s-.48,2.56-.71,3.77-.51,2.47-.85,3.75a41,41,0,0,1-1.48,4.43,4.11,4.11,0,0,1-2.35,1.54,4,4,0,0,1-2.45-.2,3.91,3.91,0,0,1-1.78-1.62A3.67,3.67,0,0,1,825,550.85Zm21.7-46.18c-.53-.15-1.06.19-1.59,1a17.08,17.08,0,0,0-1.56,3.41c-.51,1.43-1,3.08-1.51,4.94s-1,3.73-1.44,5.62-.92,3.7-1.34,5.42-.81,3.19-1.19,4.41l4.51.11c1.39,0,2.75.08,4.09.14l4.09.17c1.38.06,2.87.11,4.46.14-.91-2.23-1.67-4.4-2.3-6.5s-1.23-4.19-1.82-6.28-1.22-4.16-1.9-6.24A59.38,59.38,0,0,0,846.72,504.67Z" fill="#fff"/><rect x="743.16" y="167.53" width="162.03" height="288.33" rx="44.44" transform="translate(1135.87 -512.48) rotate(90)" fill="#fff"/><rect x="695.44" y="246.1" width="257.47" height="131.18" rx="24.55" fill="#68a9fd"/><path d="M745.82,284.46a5.4,5.4,0,0,1,.74-3.44,4.13,4.13,0,0,1,2.14-1.76,3.82,3.82,0,0,1,2.64.1,4.28,4.28,0,0,1,2.22,2.22,13.71,13.71,0,0,1,5.9-2.32,33.82,33.82,0,0,1,8.3-.42,42.3,42.3,0,0,1,9.18,1.65,29.34,29.34,0,0,1,8.51,4,22.43,22.43,0,0,1,6.33,6.58,17.89,17.89,0,0,1,2.64,9.35,31.54,31.54,0,0,1-1.76,11.75,26.5,26.5,0,0,1-5.13,8.72,25.13,25.13,0,0,1-7.46,5.7,25.63,25.63,0,0,1-8.58,2.6,23,23,0,0,1-8.58-.63,19.58,19.58,0,0,1-7.53-3.87c-.09,2-.11,3.95-.07,5.8s.1,3.68.15,5.49.09,3.63.14,5.48,0,3.79,0,5.81a5.24,5.24,0,0,1-1.34,3.51,3.82,3.82,0,0,1-2.67,1.23,4,4,0,0,1-2.78-1,4.92,4.92,0,0,1-1.58-3.34q0-8.44,0-16.46T747,315.34q-.13-7.8-.42-15.47T745.82,284.46Zm9.28,6.33q.28,3.45.43,6.55t.17,6.15q0,3.06,0,6.15c0,2.07-.06,4.25-.1,6.55a5.35,5.35,0,0,1,2.25.21,11,11,0,0,0,4.92,2.78,15.79,15.79,0,0,0,5.73.42,18.57,18.57,0,0,0,5.77-1.62,18.16,18.16,0,0,0,5.06-3.41,17,17,0,0,0,3.59-4.93,13.8,13.8,0,0,0,1.37-6.18,12.86,12.86,0,0,0-1.54-6.37,15.93,15.93,0,0,0-4-4.75,19.19,19.19,0,0,0-5.66-3.06,24.77,24.77,0,0,0-6.4-1.3,21.66,21.66,0,0,0-6.26.49A14.75,14.75,0,0,0,755.1,290.79Z" fill="#fff"/><path d="M843.66,281.86a4.84,4.84,0,0,1,4.68-4,5.14,5.14,0,0,1,3,.88,4.88,4.88,0,0,1,2,2.81q1.89,16.74,2.63,33.13t.81,33.27a4.55,4.55,0,0,1-.84,2.57A4.7,4.7,0,0,1,854,352a6.63,6.63,0,0,1-5.1,0,5.72,5.72,0,0,1-2-1.51,4.78,4.78,0,0,1-1.05-2.53q-.07-7.95.28-15.58t0-15.58c-.23.09-.49.19-.77.28s-.59.19-.92.28c-2.62,0-5.16-.16-7.59-.35s-4.86-.33-7.25-.42-4.79-.07-7.21.07a47,47,0,0,0-7.42,1.05l-.7,28.14a4.62,4.62,0,0,1-1.51,3.45,4.68,4.68,0,0,1-3,1.12,5.07,5.07,0,0,1-3.13-1.12,4.8,4.8,0,0,1-1.76-3.38v-64a4.44,4.44,0,0,1,1.76-2.88,4.88,4.88,0,0,1,2.92-.88,5.41,5.41,0,0,1,5,4l.42,26a54.4,54.4,0,0,1,7.49-.85q3.63-.14,7.21,0t7.25.46c2.43.18,5,.3,7.59.35a1.79,1.79,0,0,0,.49.17,2.19,2.19,0,0,1,.5.18q-.42-7-.74-13.26T843.66,281.86Z" fill="#fff"/><path d="M867,284.46a5.46,5.46,0,0,1,.74-3.44,4.13,4.13,0,0,1,2.14-1.76,3.82,3.82,0,0,1,2.64.1,4.28,4.28,0,0,1,2.22,2.22,13.7,13.7,0,0,1,5.91-2.32,33.76,33.76,0,0,1,8.3-.42,42.3,42.3,0,0,1,9.18,1.65,29.59,29.59,0,0,1,8.51,4,22.69,22.69,0,0,1,6.33,6.58,18,18,0,0,1,2.63,9.35,31.76,31.76,0,0,1-1.75,11.75,26.69,26.69,0,0,1-5.14,8.72,25.22,25.22,0,0,1-7.45,5.7,25.75,25.75,0,0,1-8.59,2.6,23,23,0,0,1-8.58-.63,19.47,19.47,0,0,1-7.52-3.87c-.1,2-.12,3.95-.07,5.8s.09,3.68.14,5.49.09,3.63.14,5.48,0,3.79,0,5.81a5.24,5.24,0,0,1-1.34,3.51,3.82,3.82,0,0,1-2.67,1.23,4,4,0,0,1-2.78-1,4.92,4.92,0,0,1-1.58-3.34q0-8.44,0-16.46t-.17-15.83q-.15-7.8-.43-15.47T867,284.46Zm9.29,6.33q.27,3.45.42,6.55t.17,6.15q0,3.06,0,6.15c0,2.07-.06,4.25-.1,6.55a5.35,5.35,0,0,1,2.25.21,11.1,11.1,0,0,0,4.92,2.78,15.79,15.79,0,0,0,5.73.42,18.57,18.57,0,0,0,5.77-1.62,18.36,18.36,0,0,0,5.07-3.41,17.1,17.1,0,0,0,3.58-4.93,13.81,13.81,0,0,0,1.38-6.18,12.87,12.87,0,0,0-1.55-6.37,15.79,15.79,0,0,0-4.05-4.75,19.19,19.19,0,0,0-5.66-3.06,24.69,24.69,0,0,0-6.4-1.3,21.69,21.69,0,0,0-6.26.49A14.7,14.7,0,0,0,876.3,290.79Z" fill="#fff"/><path d="M444.2,469.94h63.66a35.75,35.75,0,0,1,35.75,35.75V653.85a35.75,35.75,0,0,1-35.75,35.75H444.2a35.75,35.75,0,0,1-35.75-35.75V505.69A35.74,35.74,0,0,1,444.2,469.94Z" transform="translate(1055.8 103.74) rotate(90)" fill="#fff"/><rect x="377.42" y="525.71" width="196.77" height="108.13" rx="16.76" fill="#68a9fd"/><path d="M439.44,550a4.26,4.26,0,0,1,.64-3.15,3.59,3.59,0,0,1,2.14-1.46,3.41,3.41,0,0,1,2.53.49,4.26,4.26,0,0,1,1.83,2.65c.37,2.12.63,4.24.8,6.35s.24,4.28.24,6.47a4.42,4.42,0,0,1-1.31,3.12,4.54,4.54,0,0,1-2.66,1.25,4.05,4.05,0,0,1-2.74-.7,3.7,3.7,0,0,1-1.53-2.81v-.49A16.19,16.19,0,0,0,425,555a20.65,20.65,0,0,0-7.78,2.2,26.33,26.33,0,0,0-7,5,16,16,0,0,0-3.21,4.7,28,28,0,0,0-1.89,5.83,33.75,33.75,0,0,0-.7,6.29,41.14,41.14,0,0,0,.33,6.16,30.74,30.74,0,0,0,1.23,5.47,14.84,14.84,0,0,0,2,4.09,15.14,15.14,0,0,0,4.43,4.15,21.27,21.27,0,0,0,5.7,2.47,25.09,25.09,0,0,0,6.32.86,26.7,26.7,0,0,0,6.35-.7,21.42,21.42,0,0,0,5.71-2.23,15.64,15.64,0,0,0,4.46-3.76,6.89,6.89,0,0,0,1.22-2.47,19.23,19.23,0,0,1,.91-2.65,4.6,4.6,0,0,1,2.17-2.17,2.49,2.49,0,0,1,2.17.06,4,4,0,0,1,1.62,1.92,7.77,7.77,0,0,1,.58,3.42,12.5,12.5,0,0,1-2.93,7.75,22,22,0,0,1-7.24,5.65,35.1,35.1,0,0,1-9.86,3.18,37.14,37.14,0,0,1-10.83.3,31.5,31.5,0,0,1-10.17-3,20.27,20.27,0,0,1-7.81-6.65,24.42,24.42,0,0,1-2.93-5.9,38.75,38.75,0,0,1-1.81-7.44,52.41,52.41,0,0,1-.51-8.31,46.06,46.06,0,0,1,.88-8.42,36.31,36.31,0,0,1,2.47-7.79,23.39,23.39,0,0,1,4.22-6.41,26.48,26.48,0,0,1,4.82-4,33.78,33.78,0,0,1,6-3.12,38,38,0,0,1,6.75-1.95,30.69,30.69,0,0,1,6.9-.55,23.11,23.11,0,0,1,6.5,1.16,16.09,16.09,0,0,1,5.56,3.17c-.05-.24-.09-.47-.13-.7S439.48,550.23,439.44,550Z" fill="#fff"/><path d="M498.42,562.75a2.91,2.91,0,0,1-.34,2.72,4,4,0,0,1-2.26,1.43,6.68,6.68,0,0,1-3.14,0,5.87,5.87,0,0,1-2.93-1.62,12.63,12.63,0,0,0-.92-3.88,12.89,12.89,0,0,0-2.14-3.57,11.65,11.65,0,0,0-3.17-2.62,7.37,7.37,0,0,0-3.91-1,10.54,10.54,0,0,0-5.13,1.5,10,10,0,0,0-3.54,3.6,11.48,11.48,0,0,0-1.46,5,11.75,11.75,0,0,0,1.16,5.73c.32.78,1.21,1.37,2.65,1.78s3.17.84,5.16,1.31,4.13,1.05,6.41,1.74a25.39,25.39,0,0,1,6.51,3.05,18.78,18.78,0,0,1,8.45,13.68,14,14,0,0,1-.82,7.63,14.55,14.55,0,0,1-4.25,5.58,20.34,20.34,0,0,1-6.59,3.54,28,28,0,0,1-7.88,1.41,29.84,29.84,0,0,1-8-.79,22.2,22.2,0,0,1-7.12-3,16.35,16.35,0,0,1-5.09-5.34,15.1,15.1,0,0,1-2-7.72,22.12,22.12,0,0,1,.12-2.35,6.51,6.51,0,0,1,.55-2,4.29,4.29,0,0,1,1.22-1.55,4.21,4.21,0,0,1,2.14-.83,3.73,3.73,0,0,1,2.08.43,3.91,3.91,0,0,1,1.37,1.31,4.89,4.89,0,0,1,.67,2,10.7,10.7,0,0,1,0,2.41,7.59,7.59,0,0,0,.76,4.61,9.27,9.27,0,0,0,2.9,3.17,12.83,12.83,0,0,0,4.16,1.83,15,15,0,0,0,4.51.46,25.91,25.91,0,0,0,4.46-.64,13.61,13.61,0,0,0,4.09-1.65,8.64,8.64,0,0,0,2.93-3,7.48,7.48,0,0,0,.86-4.58,9.68,9.68,0,0,0-.83-3.05,12.27,12.27,0,0,0-1.86-3,16.22,16.22,0,0,0-2.62-2.48,9.78,9.78,0,0,0-3.12-1.58q-2.44-.74-5.07-1.41t-5.09-1.52a32.22,32.22,0,0,1-4.67-2,15.45,15.45,0,0,1-3.88-2.87,12.45,12.45,0,0,1-2.66-4.12,17.92,17.92,0,0,1,.46-13.15,17.68,17.68,0,0,1,4.12-5.62,18.55,18.55,0,0,1,5.74-3.57,16.94,16.94,0,0,1,6.29-1.25,26.33,26.33,0,0,1,7.81,1.09,19.81,19.81,0,0,1,6.23,3.18,17,17,0,0,1,4.4,5A19.56,19.56,0,0,1,498.42,562.75Z" fill="#fff"/><path d="M544.39,562.75a2.91,2.91,0,0,1-.34,2.72,4,4,0,0,1-2.26,1.43,6.68,6.68,0,0,1-3.14,0,5.87,5.87,0,0,1-2.93-1.62,12.63,12.63,0,0,0-.92-3.88,13.1,13.1,0,0,0-2.13-3.57,11.85,11.85,0,0,0-3.18-2.62,7.37,7.37,0,0,0-3.91-1,10.47,10.47,0,0,0-5.12,1.5,9.85,9.85,0,0,0-3.54,3.6,11.36,11.36,0,0,0-1.47,5,11.75,11.75,0,0,0,1.16,5.73c.33.78,1.21,1.37,2.66,1.78s3.16.84,5.15,1.31,4.14,1.05,6.42,1.74a25.48,25.48,0,0,1,6.5,3.05,18.78,18.78,0,0,1,8.45,13.68,14,14,0,0,1-.82,7.63,14.62,14.62,0,0,1-4.24,5.58,20.5,20.5,0,0,1-6.6,3.54,28,28,0,0,1-7.87,1.41,29.87,29.87,0,0,1-8.06-.79,22.05,22.05,0,0,1-7.11-3,16.28,16.28,0,0,1-5.1-5.34,15.1,15.1,0,0,1-2-7.72,19.71,19.71,0,0,1,.13-2.35,6.5,6.5,0,0,1,.54-2,4.32,4.32,0,0,1,1.23-1.55,4.17,4.17,0,0,1,2.13-.83,3.71,3.71,0,0,1,2.08.43,3.83,3.83,0,0,1,1.37,1.31,4.75,4.75,0,0,1,.67,2,10.7,10.7,0,0,1,0,2.41,7.52,7.52,0,0,0,.77,4.61,9.18,9.18,0,0,0,2.9,3.17,12.68,12.68,0,0,0,4.15,1.83,15,15,0,0,0,4.52.46,25.8,25.8,0,0,0,4.45-.64A13.61,13.61,0,0,0,533,600a8.64,8.64,0,0,0,2.93-3,7.41,7.41,0,0,0,.86-4.58,9.42,9.42,0,0,0-.83-3.05,12,12,0,0,0-1.86-3,16.22,16.22,0,0,0-2.62-2.48,9.78,9.78,0,0,0-3.12-1.58c-1.63-.49-3.31-1-5.06-1.41s-3.45-1-5.1-1.52a32.22,32.22,0,0,1-4.67-2,15.45,15.45,0,0,1-3.88-2.87,12.43,12.43,0,0,1-2.65-4.12,15.94,15.94,0,0,1-1-5.77,16.58,16.58,0,0,1,1.49-7.38,17.68,17.68,0,0,1,4.12-5.62,18.67,18.67,0,0,1,5.74-3.57,17,17,0,0,1,6.29-1.25,26.44,26.44,0,0,1,7.82,1.09,19.76,19.76,0,0,1,6.22,3.18,17,17,0,0,1,4.4,5A19.56,19.56,0,0,1,544.39,562.75Z" fill="#fff"/></svg>